<svg width="33" height="33" viewBox="0 0 33 33" fill="none" xmlns="http://www.w3.org/2000/svg">
<path d="M16.5 23.375C16.5 25.1984 15.7757 26.9471 14.4864 28.2364C13.197 29.5257 11.4484 30.25 9.625 30.25C7.80164 30.25 6.05295 29.5257 4.76364 28.2364C3.47433 26.9471 2.75 25.1984 2.75 23.375C2.75 19.58 6.1875 16.5 9.625 19.25C13.0625 16.5 16.5 19.58 16.5 23.375ZM16.5 23.375C16.5 25.1984 17.2243 26.9471 18.5136 28.2364C19.803 29.5257 21.5516 30.25 23.375 30.25C25.1984 30.25 26.947 29.5257 28.2364 28.2364C29.5257 26.9471 30.25 25.1984 30.25 23.375C30.25 19.58 26.8125 16.5 23.375 19.25C19.9375 16.5 16.5 19.58 16.5 23.375Z" stroke="#DE4447" stroke-width="2" stroke-linecap="round" stroke-linejoin="round"/>
<path d="M9.625 19.25C14.0525 15.2487 15.5238 7.21875 16.5 2.75C18.7825 6.0225 23.2925 15.125 23.375 19.25" stroke="#DE4447" stroke-width="2" stroke-linecap="round" stroke-linejoin="round"/>
<path d="M30.25 12.375C24.3513 12.375 20.4325 9.17125 16.5 2.75C24.3513 2.75 30.25 9.17125 30.25 12.375Z" stroke="#DE4447" stroke-width="2" stroke-linecap="round" stroke-linejoin="round"/>
<ellipse cx="9.5" cy="24" rx="6.5" ry="6" fill="#DE4447"/>
<ellipse cx="23.5" cy="24" rx="6.5" ry="6" fill="#DE4447"/>
</svg>
